<?xml version="1.0" encoding="UTF-8"?>
<svg viewBox="0 0 288 288" xmlns="http://www.w3.org/2000/svg">
 <defs>
  <linearGradient id="a" y1=".99109" spreadMethod="reflect">
   <stop stop-color="#007a5e" stop-opacity=".996" offset=".35156"/>
   <stop stop-color="#e5c64a" stop-opacity=".988" offset=".64062"/>
   <stop stop-color="#f7a30a" stop-opacity=".992" offset="1"/>
   <stop stop-color="#bf00bf" stop-opacity=".996" offset="1"/>
  </linearGradient>
 </defs>
 <polygon points="249.11 122.7 248.3 123.92 247.46 125.11 246.57 126.28 245.64 127.41 244.67 128.51 243.67 129.58 242.64 130.61 241.56 131.61 240.46 132.57 239.32 133.49 238.16 134.38 236.96 135.22 235.74 136.03 234.49 136.79 233.89 137.14 225.77 149.32 212.12 155.83 195.21 181.84 194.68 182.37 194.1 182.51 193.5 182.61 192.9 182.66 192.29 182.67 191.69 182.62 191.09 182.52 190.91 182.48 190.53 182.66 190.13 182.79 189.7 182.89 189.28 182.92 188.86 182.92 188.43 182.85 188.02 182.75 187.63 182.6 187.24 182.4 186.9 182.16 186.57 181.89 186.28 181.57 186.02 181.22 185.82 180.85 185.66 180.46 185.6 180.31 185.41 179.73 185.26 179.13 185.15 178.51 185.1 177.89 185.09 177.28 185.14 176.66 185.23 176.05 185.37 175.44 185.47 175.11 185.55 174.94 185.67 174.78 185.83 174.66 186.01 174.59 186.21 174.56 186.41 174.58 186.59 174.65 186.75 174.76 186.89 174.91 186.97 175.08 188.34 178.88 188.34 178.87 188.63 179.05 188.95 179.18 189.28 179.27 189.62 179.32 189.97 179.31 190.31 179.25 190.63 179.15 190.94 179 191.22 178.8 191.48 178.57 191.7 178.31 191.88 178.01 191.98 177.79 196.52 151.83 196.52 151.84 196.65 151.57 196.71 151.28 196.74 150.99 196.71 150.71 196.65 150.42 196.52 150.16 196.37 149.92 196.16 149.71 195.93 149.53 195.68 149.39 195.4 149.31 195.11 149.26 194.99 149.26 186.42 146.76 186.23 146.73 186.02 146.75 185.84 146.81 185.61 146.98 184.53 148.17 183.49 149.38 182.49 150.63 181.52 151.91 180.59 153.22 179.71 154.55 178.86 155.91 178.06 157.3 177.31 158.71 176.59 160.15 176.41 160.52 176.2 161.04 176.03 161.57 175.9 162.11 175.83 162.67 175.81 162.93 175.71 165.41 175.67 167.9 175.68 170.38 175.73 172.86 175.84 175.34 175.99 177.82 176.19 180.29 176.44 182.76 176.74 185.23 177.09 187.69 177.48 190.14 177.93 192.58 178.42 195.01 178.97 197.44 179.56 199.84 179.86 201.03 180.03 201.56 180.24 202.09 180.5 202.58 180.8 203.05 181.14 203.49 181.52 203.9 181.93 204.28 182.38 204.62 182.85 204.92 183.34 205.18 183.85 205.39 184.15 205.49 184.15 205.49 235.56 221.22 235.82 221.27 236.11 221.28 236.39 221.24 236.65 221.16 236.71 221.13 237.17 220.94 237.64 220.78 238.13 220.69 238.63 220.64 239.13 220.63 239.62 220.68 240.11 220.77 240.34 220.84 241.17 221.06 241.99 221.33 242.79 221.65 243.57 222.02 244.33 222.42 244.6 222.58 245.11 223.05 245.65 223.47 246.22 223.87 246.81 224.21 247.41 224.5 247.59 224.66 247.73 224.86 247.84 225.07 247.89 225.3 247.9 225.53 247.86 225.77 247.77 225.99 247.64 226.19 247.47 226.36 247.27 226.49 247.05 226.58 246.81 226.61 246.57 226.61 246.49 226.59 246.27 226.46 246.04 226.39 245.79 226.35 245.54 226.37 245.3 226.44 245.08 226.55 244.88 226.7 244.72 226.88 244.59 227.1 244.51 227.34 244.48 227.49 244.4 227.76 244.26 228.01 244.09 228.22 243.87 228.41 243.63 228.55 243.36 228.65 243.09 228.71 242.81 228.71 242.53 228.67 242.27 228.58 242.17 228.53 241.38 228.38 240.6 228.28 239.81 228.23 239.01 228.23 238.22 228.28 237.43 228.37 236.71 228.5 235.84 228.46 234.96 228.37 234.1 228.22 233.24 228.03 232.4 227.79 231.57 227.51 230.76 227.18 229.96 226.81 229.19 226.39 228.77 226.13 228.77 226.13 176.83 217.33 176.16 217.2 175.5 217.02 174.86 216.78 174.23 216.51 173.62 216.19 173.05 215.83 172.49 215.42 171.96 214.99 171.48 214.51 171.02 214 170.6 213.45 170.23 212.89 169.89 212.29 169.6 211.67 169.36 211.03 169.16 210.38 169 209.72 168.48 207.19 167.92 204.66 167.3 202.14 166.63 199.64 165.92 197.14 165.16 194.66 164.36 192.21 163.5 189.75 162.61 187.32 161.67 184.91 160.68 182.51 159.64 180.13 158.56 177.78 157.44 175.44 156.27 173.13 155.06 170.83 153.8 168.57 153.59 168.18 148.18 157.38 146.79 156.92 145.42 156.42 144.05 155.87 142.72 155.27 141.4 154.63 140.09 153.95 138.83 153.22 137.57 152.46 136.35 151.65 135.16 150.79 133.99 149.91 133.65 149.63 110.88 129.07 110.88 129.07 110.56 128.83 110.22 128.62 109.87 128.46 109.49 128.35 109.1 128.27 108.71 128.25 108.31 128.28 107.92 128.36 107.55 128.49 107.2 128.66 106.86 128.87 106.69 129 104.72 130.63 102.71 132.23 100.68 133.78 98.611 135.3 96.52 136.77 94.391 138.21 92.244 139.6 90.074 140.96 87.871 142.27 85.643 143.53 83.391 144.76 81.121 145.95 78.827 147.08 76.508 148.18 74.172 149.23 71.813 150.23 69.44 151.19 67.047 152.1 64.636 152.98 62.206 153.8 59.765 154.57 57.311 155.3 54.839 155.98 54.766 156 53.457 156.37 52.139 156.69 50.81 156.97 49.472 157.2 48.122 157.38 46.773 157.5 45.416 157.59 44.053 157.62 42.698 157.6 41.333 157.54 39.985 157.42 38.636 157.25 37.293 157.04 35.96 156.78 34.635 156.48 33.324 156.11 32.03 155.71 30.748 155.26 29.483 154.76 28.239 154.22 27.013 153.64 25.809 153.01 24.623 152.33 23.472 151.61 22.341 150.86 21.243 150.06 20.171 149.23 19.134 148.36 18.122 147.44 17.145 146.5 16.206 145.52 15.307 144.5 14.441 143.46 13.611 142.38 12.822 141.27 12.078 140.14 11.366 138.97 10.703 137.79 10.085 136.58 9.5083 135.35 8.9744 134.1 8.4886 132.83 8.0483 131.55 7.6562 130.25 7.311 128.93 7.0112 127.6 6.7597 126.27 6.5562 124.93 6.484 124.33 6.8814 125.49 7.3284 126.63 7.8262 127.76 8.3614 128.87 8.9422 129.95 9.5632 131.01 10.232 132.05 10.937 133.05 11.687 134.03 12.466 134.98 13.287 135.9 14.146 136.78 15.035 137.63 15.96 138.44 16.92 139.21 17.907 139.95 18.92 140.64 19.961 141.3 21.03 141.91 22.122 142.47 23.23 143 24.366 143.48 25.513 143.92 26.685 144.3 27.864 144.64 29.059 144.94 30.262 145.19 31.477 145.38 32.699 145.53 33.926 145.63 35.152 145.68 36.386 145.68 37.611 145.63 38.837 145.54 40.062 145.4 41.274 145.2 42.482 144.96 42.937 144.85 44.76 144.25 46.563 143.58 48.356 142.88 50.122 142.13 51.87 141.34 53.599 140.5 55.306 139.62 56.011 139.23 58.3 137.89 60.569 136.5 62.808 135.08 65.017 133.6 67.207 132.09 69.36 130.55 71.489 128.96 73.587 127.33 75.655 125.66 77.691 123.96 79.697 122.22 81.674 120.44 83.613 118.62 85.513 116.77 87.385 114.88 89.226 112.97 90.68 111.39 93.201 108.12 95.759 104.88 98.356 101.66 100.99 98.486 103.65 95.341 106.36 92.23 109.11 89.142 111.89 86.094 112.67 85.26 114.35 83.509 116.07 81.798 117.82 80.126 119.61 78.48 121.42 76.879 123.28 75.31 125.16 73.783 127.07 72.289 129.01 70.836 130.98 69.423 131.69 68.936 132.94 68.132 134.22 67.378 135.51 66.658 136.84 65.989 138.18 65.356 139.54 64.774 140.93 64.243 142.33 63.744 143.74 63.303 145.17 62.903 146.61 62.551 148.07 62.249 149.53 61.996 150.99 61.786 152.47 61.631 153.95 61.525 155.43 61.467 156.41 61.449 157.8 61.525 159.19 61.641 160.58 61.811 161.96 62.027 163.34 62.294 164.7 62.608 166.05 62.962 167.38 63.373 168.7 63.827 170 64.334 171.29 64.877 172.56 65.466 173.8 66.107 175.03 66.787 176.22 67.505 177.38 68.264 178.53 69.068 179.24 69.604 181.01 70.946 182.76 72.333 184.47 73.756 186.15 75.217 187.8 76.713 189.42 78.248 190.99 79.817 192.54 81.425 194.05 83.064 195.53 84.732 196.96 86.43 198.36 88.168 199.73 89.927 200.19 90.557 201.76 92.318 203.29 94.112 204.78 95.94 206.23 97.794 207.65 99.683 208.96 101.51 209.4 102.06 209.87 102.57 210.39 103.05 210.94 103.49 211.51 103.9 212.11 104.26 212.74 104.58 213.35 104.85 216.27 105.92 219.2 106.94 222.14 107.92 224.2 108.58 224.67 108.81 225.17 109 225.68 109.14 226.2 109.23 226.72 109.27 227.25 109.26 227.77 109.21 228.29 109.11 228.79 108.95 229.28 108.76 229.75 108.52 230.2 108.23 230.25 108.19 242.03 100.55 234.66 96.486 233.56 95.852 232.42 95.259 231.27 94.715 231.12 94.652 230.52 94.273 229.96 93.847 229.41 93.388 228.91 92.884 228.43 92.357 228 91.791 227.74 91.412 227.39 90.791 227 90.197 226.57 89.632 226.1 89.101 225.6 88.598 225.07 88.128 224.89 87.99 224.62 87.83 224.37 87.628 224.16 87.385 223.99 87.124 223.87 86.834 223.79 86.532 223.76 86.217 223.78 85.904 223.84 85.596 223.96 85.302 224.11 85.033 224.31 84.785 224.54 84.571 224.8 84.4 225.09 84.274 225.39 84.186 225.71 84.147 226.02 84.166 226.31 84.222 227.22 84.646 228.15 85.026 229.1 85.358 230.06 85.644 231.04 85.885 232.02 86.075 233.02 86.222 233.31 86.252 234.2 86.572 235.09 86.941 235.96 87.345 236.81 87.798 237.63 88.297 238.43 88.836 239.21 89.413 239.38 89.553 240.64 90.462 241.88 91.412 243.08 92.398 244.25 93.426 245.39 94.486 246.5 95.584 247.56 96.714 247.55 96.909 247.58 97.086 247.65 97.25 247.77 97.395 247.91 97.499 248.08 97.565 248.27 97.578 248.44 97.542 248.61 97.462 248.75 97.345 248.85 97.193 248.9 97.051 249.29 96.864 249.71 96.731 250.14 96.644 250.58 96.603 251.02 96.616 251.46 96.667 251.89 96.774 252.3 96.928 252.39 97.21 252.53 97.471 252.7 97.704 252.92 97.901 253.16 98.069 253.43 98.186 253.72 98.261 254.01 98.289 254.31 98.265 254.34 98.261 256.03 99.536 257.74 100.78 258.87 101.55 258.94 101.83 259.05 102.1 259.21 102.33 259.4 102.54 259.63 102.71 259.88 102.85 260.15 102.93 260.37 102.96 262.57 104.17 264.75 105.41 266.9 106.69 269.03 108.02 271.13 109.39 273.21 110.8 275.26 112.25 276.27 112.99 276.61 113.17 276.92 113.38 277.19 113.63 277.43 113.91 277.64 114.23 277.79 114.57 277.9 114.93 277.95 115.14 278.27 115.31 278.56 115.52 278.82 115.76 279.04 116.05 279.24 116.36 279.38 116.69 279.47 117.04 279.52 117.39 279.52 117.76 279.48 118.05 279.42 118.49 279.32 118.92 279.16 119.33 278.96 119.73 278.73 120.1 278.45 120.44 278.13 120.75 277.79 121.03 277.4 121.26 277 121.44 276.58 121.59 276.16 121.68 275.71 121.73 275.27 121.73 274.83 121.68 274.4 121.58 273.98 121.44 273.61 121.25 273.36 121.03 273.1 120.84 272.81 120.69 272.5 120.58 272.18 120.53 271.86 120.52 271.53 120.56 271.22 120.66 271.01 120.74 269.77 120.86 268.52 120.93 267.27 120.95 266.02 120.93 265.47 120.9 265.47 120.9 264.8 121.21 264.11 121.48 263.41 121.7 262.69 121.88 261.96 122.01 261.46 122.06 261.46 122.06 259 122.26 256.53 122.4 254.06 122.51 251.6 122.56 249.39 122.56 249.16 122.65" fill="url(#a)" fill-rule="evenodd"/>
</svg>
